<svg width="17" height="17" viewBox="0 0 17 17" fill="none" xmlns="http://www.w3.org/2000/svg">
<path d="M16.3751 8.5C16.3769 8.73071 16.3068 8.95626 16.1745 9.14528C16.0421 9.33429 15.8542 9.47739 15.6368 9.55468L11.1762 11.1768L9.55481 15.6367C9.47489 15.852 9.331 16.0377 9.14246 16.1688C8.95392 16.2999 8.72977 16.3702 8.50012 16.3702C8.27047 16.3702 8.04631 16.2999 7.85778 16.1688C7.66924 16.0377 7.52535 15.852 7.44543 15.6367L5.82402 11.1761L1.3634 9.55468C1.1481 9.47477 0.962416 9.33088 0.831291 9.14234C0.700166 8.9538 0.629883 8.72965 0.629883 8.5C0.629883 8.27034 0.700166 8.04619 0.831291 7.85765C0.962416 7.66912 1.1481 7.52522 1.3634 7.44531L5.82402 5.8239L7.44543 1.36328C7.52535 1.14798 7.66924 0.962294 7.85778 0.831169C8.04631 0.700044 8.27047 0.629761 8.50012 0.629761C8.72977 0.629761 8.95392 0.700044 9.14246 0.831169C9.331 0.962294 9.47489 1.14798 9.55481 1.36328L11.1769 5.8239L15.6368 7.44531C15.8542 7.5226 16.0421 7.6657 16.1745 7.85472C16.3068 8.04373 16.3769 8.26928 16.3751 8.5Z" fill="#FE6E39"/>
</svg>
