<svg width="45" height="42" viewBox="0 0 45 42" fill="none" xmlns="http://www.w3.org/2000/svg">
<path d="M42.4033 22.7501V33.0958C42.4026 33.4057 42.3187 33.7097 42.1604 33.9761C42.0021 34.2425 41.7751 34.4615 41.5033 34.6102L31.9841 39.8209C31.7297 39.9614 31.4439 40.0352 31.1533 40.0352C30.8627 40.0352 30.5769 39.9614 30.3225 39.8209L20.8033 34.6102C20.5315 34.4615 20.3045 34.2425 20.1462 33.9761C19.9879 33.7097 19.904 33.4057 19.9033 33.0958V22.7501C19.904 22.4403 19.9879 22.1363 20.1462 21.8699C20.3045 21.6035 20.5315 21.3845 20.8033 21.2357L30.3225 16.025C30.5769 15.8845 30.8627 15.8108 31.1533 15.8108C31.4439 15.8108 31.7297 15.8845 31.9841 16.025L41.5033 21.2357C41.7751 21.3845 42.0021 21.6035 42.1604 21.8699C42.3187 22.1363 42.4026 22.4403 42.4033 22.7501Z" fill="#FE6E39"/>
<path d="M18.0692 21.7763L10.9298 17.5418C10.7629 17.4419 10.5753 17.3895 10.3846 17.3895C10.1939 17.3895 10.0063 17.4419 9.83941 17.5418L2.7 21.7763C2.52136 21.8822 2.37228 22.0382 2.26837 22.2279C2.16446 22.4177 2.10955 22.6342 2.10938 22.8548V31.2606C2.10955 31.4812 2.16446 31.6977 2.26837 31.8874C2.37228 32.0772 2.52136 32.2331 2.7 32.339L9.83941 36.5736C10.0064 36.6733 10.1939 36.7256 10.3846 36.7256C10.5753 36.7256 10.7628 36.6733 10.9298 36.5736L18.0692 32.339C18.2478 32.2331 18.3969 32.0772 18.5008 31.8874C18.6047 31.6977 18.6596 31.4812 18.6598 31.2606V22.8548C18.6596 22.6342 18.6047 22.4177 18.5008 22.2279C18.3969 22.0382 18.2478 21.8822 18.0692 21.7763ZM17.6863 31.2606C17.6865 31.2917 17.6791 31.3224 17.6649 31.3494C17.6506 31.3764 17.63 31.3989 17.6051 31.4144L10.4657 35.649C10.4418 35.6631 10.4151 35.6705 10.3878 35.6705C10.3606 35.6705 10.3338 35.6631 10.31 35.649L3.16406 31.4144C3.13918 31.3989 3.11856 31.3764 3.1043 31.3494C3.09005 31.3224 3.08267 31.2917 3.08293 31.2606V22.8548C3.08267 22.8236 3.09005 22.793 3.1043 22.766C3.11856 22.739 3.13918 22.7165 3.16406 22.701L10.3035 18.4664C10.3273 18.4522 10.3541 18.4448 10.3814 18.4448C10.4086 18.4448 10.4354 18.4522 10.4592 18.4664L17.5986 22.701C17.6235 22.7165 17.6441 22.739 17.6584 22.766C17.6727 22.793 17.68 22.8236 17.6798 22.8548L17.6863 31.2606Z" fill="#A6A6A6"/>
<path d="M27.4755 6.73577V14.495C27.475 14.7274 27.4121 14.9554 27.2934 15.1552C27.1746 15.355 27.0044 15.5193 26.8006 15.6308L19.6611 19.5388C19.4704 19.6442 19.256 19.6995 19.0381 19.6995C18.8201 19.6995 18.6057 19.6442 18.415 19.5388L11.2756 15.6308C11.0717 15.5193 10.9015 15.355 10.7828 15.1552C10.664 14.9554 10.6011 14.7274 10.6006 14.495V6.73577C10.6011 6.50336 10.664 6.27535 10.7828 6.07556C10.9015 5.87576 11.0717 5.71151 11.2756 5.59995L18.415 1.69194C18.6057 1.58654 18.8201 1.53125 19.0381 1.53125C19.256 1.53125 19.4704 1.58654 19.6611 1.69194L26.8006 5.59995C27.0044 5.71151 27.1746 5.87576 27.2934 6.07556C27.4121 6.27535 27.475 6.50336 27.4755 6.73577Z" fill="#E9E9E9"/>
</svg>
